<mxfile host="app.diagrams.net" modified="2020-08-11T10:41:35.789Z" agent="5.0 (Macintosh; Intel Mac OS X 10_15_6) AppleWebKit/537.36 (KHTML, like Gecko) Chrome/84.0.4147.105 Safari/537.36" etag="NMJFN2QVDC8-FCrR_jDm" version="13.6.2" type="github">
  <diagram id="C5RBs43oDa-KdzZeNtuy" name="Page-1">
    <mxGraphModel dx="804" dy="1634" grid="1" gridSize="10" guides="1" tooltips="1" connect="1" arrows="1" fold="1" page="1" pageScale="1" pageWidth="827" pageHeight="1169" math="0" shadow="0">
      <root>
        <mxCell id="WIyWlLk6GJQsqaUBKTNV-0" />
        <mxCell id="WIyWlLk6GJQsqaUBKTNV-1" parent="WIyWlLk6GJQsqaUBKTNV-0" />
        <mxCell id="XKmHDwgNy-t6aqt3oPUQ-0" value="Start" style="ellipse;whiteSpace=wrap;html=1;" vertex="1" parent="WIyWlLk6GJQsqaUBKTNV-1">
          <mxGeometry x="10" y="235" width="50" height="50" as="geometry" />
        </mxCell>
        <mxCell id="XKmHDwgNy-t6aqt3oPUQ-1" value="&lt;h1 style=&quot;font-size: 23px&quot;&gt;&lt;span style=&quot;font-weight: normal&quot;&gt;&lt;font style=&quot;font-size: 11px&quot;&gt;tls request by client&lt;/font&gt;&lt;/span&gt;&lt;/h1&gt;" style="text;html=1;strokeColor=none;fillColor=none;spacing=5;spacingTop=-20;whiteSpace=wrap;overflow=hidden;rounded=0;" vertex="1" parent="WIyWlLk6GJQsqaUBKTNV-1">
          <mxGeometry y="272" width="170" height="50" as="geometry" />
        </mxCell>
        <mxCell id="XKmHDwgNy-t6aqt3oPUQ-2" value="" style="rounded=1;whiteSpace=wrap;html=1;fillColor=#fff2cc;strokeColor=#d6b656;" vertex="1" parent="WIyWlLk6GJQsqaUBKTNV-1">
          <mxGeometry x="130" y="130" width="555" height="260" as="geometry" />
        </mxCell>
        <mxCell id="XKmHDwgNy-t6aqt3oPUQ-4" value="k8s infra" style="text;html=1;strokeColor=none;fillColor=none;align=center;verticalAlign=middle;whiteSpace=wrap;rounded=0;fontSize=18;fontStyle=1" vertex="1" parent="WIyWlLk6GJQsqaUBKTNV-1">
          <mxGeometry x="95" y="110" width="100" height="20" as="geometry" />
        </mxCell>
        <mxCell id="XKmHDwgNy-t6aqt3oPUQ-43" value="" style="edgeStyle=orthogonalEdgeStyle;rounded=0;orthogonalLoop=1;jettySize=auto;html=1;strokeWidth=1;fontSize=18;" edge="1" parent="WIyWlLk6GJQsqaUBKTNV-1" source="XKmHDwgNy-t6aqt3oPUQ-5" target="XKmHDwgNy-t6aqt3oPUQ-16">
          <mxGeometry relative="1" as="geometry">
            <Array as="points">
              <mxPoint x="210" y="240" />
              <mxPoint x="225" y="240" />
            </Array>
          </mxGeometry>
        </mxCell>
        <mxCell id="XKmHDwgNy-t6aqt3oPUQ-5" value="&lt;div&gt;&lt;u&gt;&lt;font color=&quot;#1a1a1a&quot;&gt;cert manager pod&lt;/font&gt;&lt;/u&gt;&lt;/div&gt;&lt;div&gt;&lt;font color=&quot;#1a1a1a&quot;&gt;- &lt;font style=&quot;font-size: 10px&quot;&gt;Issuers&lt;/font&gt;&lt;/font&gt;&lt;/div&gt;&lt;div&gt;&lt;font color=&quot;#1a1a1a&quot;&gt;&lt;font style=&quot;font-size: 10px&quot;&gt;&lt;br&gt;&lt;/font&gt;&lt;/font&gt;&lt;/div&gt;&lt;div&gt;&lt;font color=&quot;#1a1a1a&quot;&gt;&lt;font style=&quot;font-size: 10px&quot;&gt;&lt;br&gt;&lt;/font&gt;&lt;/font&gt;&lt;/div&gt;&lt;div&gt;&lt;font color=&quot;#1a1a1a&quot;&gt;&lt;font style=&quot;font-size: 10px&quot;&gt;&lt;br&gt;&lt;/font&gt;&lt;/font&gt;&lt;/div&gt;" style="rounded=1;whiteSpace=wrap;html=1;align=left;" vertex="1" parent="WIyWlLk6GJQsqaUBKTNV-1">
          <mxGeometry x="150" y="150" width="120" height="80" as="geometry" />
        </mxCell>
        <mxCell id="XKmHDwgNy-t6aqt3oPUQ-7" value="" style="rounded=1;whiteSpace=wrap;html=1;fillColor=#f8cecc;strokeColor=#b85450;" vertex="1" parent="WIyWlLk6GJQsqaUBKTNV-1">
          <mxGeometry x="490" y="14" width="200" height="110" as="geometry" />
        </mxCell>
        <mxCell id="XKmHDwgNy-t6aqt3oPUQ-11" value="&lt;h1 style=&quot;font-size: 19px&quot;&gt;Vault Infra&lt;/h1&gt;&lt;p&gt;- PKI storage engine&lt;/p&gt;&lt;p&gt;- Signing authority&lt;/p&gt;&lt;p&gt;- Vault access policy&lt;/p&gt;&lt;p&gt;- Auto renew engine&lt;/p&gt;" style="text;html=1;strokeColor=none;fillColor=none;spacing=5;spacingTop=-20;whiteSpace=wrap;overflow=hidden;rounded=0;" vertex="1" parent="WIyWlLk6GJQsqaUBKTNV-1">
          <mxGeometry x="495" y="-10" width="190" height="130" as="geometry" />
        </mxCell>
        <mxCell id="XKmHDwgNy-t6aqt3oPUQ-13" value="" style="endArrow=classic;html=1;fontSize=18;entryX=-0.01;entryY=0.45;entryDx=0;entryDy=0;exitX=0.5;exitY=0;exitDx=0;exitDy=0;entryPerimeter=0;" edge="1" parent="WIyWlLk6GJQsqaUBKTNV-1" source="XKmHDwgNy-t6aqt3oPUQ-5" target="XKmHDwgNy-t6aqt3oPUQ-7">
          <mxGeometry relative="1" as="geometry">
            <mxPoint x="400" y="195" as="sourcePoint" />
            <mxPoint x="490" y="110" as="targetPoint" />
            <Array as="points">
              <mxPoint x="210" y="64" />
            </Array>
          </mxGeometry>
        </mxCell>
        <mxCell id="XKmHDwgNy-t6aqt3oPUQ-14" value="CSR&amp;nbsp;" style="edgeLabel;resizable=0;html=1;align=center;verticalAlign=middle;" connectable="0" vertex="1" parent="XKmHDwgNy-t6aqt3oPUQ-13">
          <mxGeometry relative="1" as="geometry" />
        </mxCell>
        <mxCell id="XKmHDwgNy-t6aqt3oPUQ-15" value="&lt;font style=&quot;font-size: 14px&quot;&gt;ingress controller&lt;/font&gt;" style="rounded=1;whiteSpace=wrap;html=1;fontSize=18;arcSize=17;fillColor=#b0e3e6;strokeColor=#0e8088;" vertex="1" parent="WIyWlLk6GJQsqaUBKTNV-1">
          <mxGeometry x="354" y="360" width="120" height="60" as="geometry" />
        </mxCell>
        <mxCell id="XKmHDwgNy-t6aqt3oPUQ-16" value="&lt;div style=&quot;text-align: left&quot;&gt;&lt;span style=&quot;font-size: 10px&quot;&gt;- secrets&lt;/span&gt;&lt;/div&gt;&lt;font style=&quot;font-size: 10px&quot;&gt;&lt;div style=&quot;text-align: left&quot;&gt;&lt;span&gt;- certificates&lt;/span&gt;&lt;/div&gt;&lt;/font&gt;" style="shape=cylinder2;whiteSpace=wrap;html=1;boundedLbl=1;backgroundOutline=1;size=7.379310344827843;fontSize=18;" vertex="1" parent="WIyWlLk6GJQsqaUBKTNV-1">
          <mxGeometry x="150" y="260" width="150" height="50" as="geometry" />
        </mxCell>
        <mxCell id="XKmHDwgNy-t6aqt3oPUQ-18" value="" style="endArrow=classic;html=1;fontSize=18;" edge="1" parent="WIyWlLk6GJQsqaUBKTNV-1">
          <mxGeometry relative="1" as="geometry">
            <mxPoint x="60" y="260" as="sourcePoint" />
            <mxPoint x="130" y="259.65999999999997" as="targetPoint" />
          </mxGeometry>
        </mxCell>
        <mxCell id="XKmHDwgNy-t6aqt3oPUQ-19" value="kubectl" style="edgeLabel;resizable=0;html=1;align=center;verticalAlign=middle;" connectable="0" vertex="1" parent="XKmHDwgNy-t6aqt3oPUQ-18">
          <mxGeometry relative="1" as="geometry" />
        </mxCell>
        <mxCell id="XKmHDwgNy-t6aqt3oPUQ-24" value="&lt;font style=&quot;font-size: 13px&quot;&gt;Signed / Renewed Certificate&lt;/font&gt;" style="endArrow=classic;html=1;fontSize=18;exitX=0.5;exitY=1;exitDx=0;exitDy=0;entryX=1;entryY=0.5;entryDx=0;entryDy=0;" edge="1" parent="WIyWlLk6GJQsqaUBKTNV-1" source="XKmHDwgNy-t6aqt3oPUQ-11" target="XKmHDwgNy-t6aqt3oPUQ-5">
          <mxGeometry x="0.0769" relative="1" as="geometry">
            <mxPoint x="230" y="200" as="sourcePoint" />
            <mxPoint x="390" y="200" as="targetPoint" />
            <Array as="points">
              <mxPoint x="590" y="190" />
            </Array>
            <mxPoint as="offset" />
          </mxGeometry>
        </mxCell>
        <mxCell id="XKmHDwgNy-t6aqt3oPUQ-28" value="" style="rounded=1;whiteSpace=wrap;html=1;fontSize=18;" vertex="1" parent="WIyWlLk6GJQsqaUBKTNV-1">
          <mxGeometry x="440" y="262" width="150" height="58" as="geometry" />
        </mxCell>
        <mxCell id="XKmHDwgNy-t6aqt3oPUQ-29" value="" style="ellipse;whiteSpace=wrap;html=1;aspect=fixed;fontSize=18;" vertex="1" parent="WIyWlLk6GJQsqaUBKTNV-1">
          <mxGeometry x="460" y="265" width="25" height="25" as="geometry" />
        </mxCell>
        <mxCell id="XKmHDwgNy-t6aqt3oPUQ-31" value="" style="ellipse;whiteSpace=wrap;html=1;aspect=fixed;fontSize=18;" vertex="1" parent="WIyWlLk6GJQsqaUBKTNV-1">
          <mxGeometry x="500" y="265" width="25" height="25" as="geometry" />
        </mxCell>
        <mxCell id="XKmHDwgNy-t6aqt3oPUQ-32" value="" style="ellipse;whiteSpace=wrap;html=1;aspect=fixed;fontSize=18;" vertex="1" parent="WIyWlLk6GJQsqaUBKTNV-1">
          <mxGeometry x="540" y="265" width="25" height="25" as="geometry" />
        </mxCell>
        <mxCell id="XKmHDwgNy-t6aqt3oPUQ-33" value="&lt;font style=&quot;font-size: 12px&quot;&gt;P1&lt;/font&gt;" style="text;html=1;strokeColor=none;fillColor=none;align=center;verticalAlign=middle;whiteSpace=wrap;rounded=0;fontSize=18;" vertex="1" parent="WIyWlLk6GJQsqaUBKTNV-1">
          <mxGeometry x="453" y="265" width="40" height="20" as="geometry" />
        </mxCell>
        <mxCell id="XKmHDwgNy-t6aqt3oPUQ-34" value="&lt;font style=&quot;font-size: 12px&quot;&gt;P2&lt;/font&gt;" style="text;html=1;strokeColor=none;fillColor=none;align=center;verticalAlign=middle;whiteSpace=wrap;rounded=0;fontSize=18;" vertex="1" parent="WIyWlLk6GJQsqaUBKTNV-1">
          <mxGeometry x="492.5" y="265" width="40" height="20" as="geometry" />
        </mxCell>
        <mxCell id="XKmHDwgNy-t6aqt3oPUQ-35" value="&lt;font style=&quot;font-size: 12px&quot;&gt;P3&lt;/font&gt;" style="text;html=1;strokeColor=none;fillColor=none;align=center;verticalAlign=middle;whiteSpace=wrap;rounded=0;fontSize=18;" vertex="1" parent="WIyWlLk6GJQsqaUBKTNV-1">
          <mxGeometry x="532.5" y="265" width="40" height="20" as="geometry" />
        </mxCell>
        <mxCell id="XKmHDwgNy-t6aqt3oPUQ-36" value="&lt;font style=&quot;font-size: 15px&quot;&gt;Service&lt;/font&gt;" style="text;html=1;strokeColor=none;fillColor=none;align=center;verticalAlign=middle;whiteSpace=wrap;rounded=0;fontSize=18;" vertex="1" parent="WIyWlLk6GJQsqaUBKTNV-1">
          <mxGeometry x="492.5" y="300" width="40" height="20" as="geometry" />
        </mxCell>
        <mxCell id="XKmHDwgNy-t6aqt3oPUQ-37" value="" style="endArrow=classic;startArrow=classic;html=1;fontSize=18;entryX=0.5;entryY=1;entryDx=0;entryDy=0;exitX=0.5;exitY=0;exitDx=0;exitDy=0;strokeWidth=4;" edge="1" parent="WIyWlLk6GJQsqaUBKTNV-1" source="XKmHDwgNy-t6aqt3oPUQ-15" target="XKmHDwgNy-t6aqt3oPUQ-36">
          <mxGeometry width="50" height="50" relative="1" as="geometry">
            <mxPoint x="460" y="372" as="sourcePoint" />
            <mxPoint x="510" y="322" as="targetPoint" />
            <Array as="points">
              <mxPoint x="510" y="350" />
            </Array>
          </mxGeometry>
        </mxCell>
        <mxCell id="XKmHDwgNy-t6aqt3oPUQ-38" value="" style="shape=flexArrow;endArrow=classic;html=1;fontSize=18;exitX=0.5;exitY=1;exitDx=0;exitDy=0;fillColor=#d5e8d4;strokeColor=#82b366;" edge="1" parent="WIyWlLk6GJQsqaUBKTNV-1" source="XKmHDwgNy-t6aqt3oPUQ-15">
          <mxGeometry width="50" height="50" relative="1" as="geometry">
            <mxPoint x="390" y="470" as="sourcePoint" />
            <mxPoint x="414" y="480" as="targetPoint" />
          </mxGeometry>
        </mxCell>
        <mxCell id="XKmHDwgNy-t6aqt3oPUQ-40" value="https" style="text;html=1;strokeColor=none;fillColor=none;align=center;verticalAlign=middle;whiteSpace=wrap;rounded=0;fontSize=18;" vertex="1" parent="WIyWlLk6GJQsqaUBKTNV-1">
          <mxGeometry x="420" y="430" width="40" height="20" as="geometry" />
        </mxCell>
        <mxCell id="XKmHDwgNy-t6aqt3oPUQ-42" value="" style="endArrow=classic;startArrow=classic;html=1;fontSize=18;exitX=0.5;exitY=0;exitDx=0;exitDy=0;entryX=1.001;entryY=0.479;entryDx=0;entryDy=0;entryPerimeter=0;" edge="1" parent="WIyWlLk6GJQsqaUBKTNV-1" source="XKmHDwgNy-t6aqt3oPUQ-15" target="XKmHDwgNy-t6aqt3oPUQ-16">
          <mxGeometry width="50" height="50" relative="1" as="geometry">
            <mxPoint x="290" y="370" as="sourcePoint" />
            <mxPoint x="340" y="320" as="targetPoint" />
            <Array as="points">
              <mxPoint x="414" y="284" />
            </Array>
          </mxGeometry>
        </mxCell>
      </root>
    </mxGraphModel>
  </diagram>
</mxfile>
